<?xml version="1.0" standalone="no"?>
<!DOCTYPE svg PUBLIC "-//W3C//DTD SVG 20010904//EN"
 "http://www.w3.org/TR/2001/REC-SVG-20010904/DTD/svg10.dtd">
<svg version="1.0" xmlns="http://www.w3.org/2000/svg"
 width="642.000000pt" height="152.000000pt" viewBox="0 0 642.000000 152.000000"
 preserveAspectRatio="xMidYMid meet">

<g transform="translate(0.000000,152.000000) scale(0.100000,-0.100000)"
fill="#000000" stroke="none">
<path d="M275 1291 c-48 -22 -79 -54 -100 -103 -13 -32 -15 -101 -15 -461 0
-419 0 -423 23 -467 12 -24 39 -58 60 -74 l39 -31 447 -3 447 -3 44 24 c30 16
55 40 75 72 l30 48 0 436 c0 434 0 436 -23 478 -12 24 -41 55 -64 70 l-42 28
-440 2 c-412 3 -444 2 -481 -16z m197 -317 c15 -15 28 -34 28 -41 0 -9 14 -13
42 -13 40 0 48 -5 120 -77 l78 -77 30 29 c25 24 29 34 24 61 -17 92 91 150
157 85 37 -38 39 -88 5 -128 -21 -24 -32 -28 -75 -28 -42 0 -55 -5 -78 -27
l-28 -28 70 -70 c57 -57 75 -70 101 -70 24 0 36 7 50 28 27 41 45 51 92 52 54
0 77 -12 97 -50 52 -100 -42 -204 -142 -156 -21 10 -39 28 -46 46 -10 26 -16
30 -52 30 -31 0 -47 7 -75 33 -19 18 -57 52 -83 76 l-48 44 -28 -27 c-25 -24
-28 -33 -23 -71 4 -39 1 -47 -27 -76 -29 -28 -36 -31 -74 -26 -66 9 -101 68
-77 128 17 40 61 62 109 54 31 -5 40 -2 64 22 l27 29 -72 72 c-60 60 -77 72
-104 72 -23 0 -34 -6 -38 -18 -13 -39 -54 -65 -102 -65 -121 0 -151 165 -39
214 33 14 86 2 117 -27z"/>
<path d="M1763 1250 c-12 -5 -26 -18 -32 -29 -7 -13 -11 -175 -11 -484 0 -455
0 -465 21 -491 25 -31 66 -34 100 -7 l24 19 3 472 3 471 -30 29 c-31 32 -42
34 -78 20z"/>
<path d="M2247 1229 c-40 -38 -334 -422 -350 -456 -6 -14 -7 -30 -1 -42 14
-31 412 -498 430 -505 70 -27 124 43 81 106 -8 13 -74 93 -147 178 -73 85
-148 174 -168 198 l-35 43 60 77 c211 273 253 333 253 360 0 38 -19 60 -57 68
-26 5 -37 1 -66 -27z"/>
<path d="M2652 1245 c-47 -34 -45 -101 4 -124 16 -7 97 -11 225 -11 219 0 242
-5 293 -59 24 -25 31 -42 34 -89 5 -70 -11 -108 -65 -149 l-36 -28 -211 -3
c-116 -1 -221 -4 -233 -7 -46 -11 -53 -47 -53 -275 0 -166 3 -217 15 -239 25
-49 82 -56 114 -15 19 25 21 40 21 204 l0 177 178 5 c165 4 182 7 235 31 201
92 250 345 95 500 -85 85 -108 91 -368 95 -198 3 -228 1 -248 -13z"/>
<path d="M3634 1237 l-29 -25 -3 -424 c-4 -468 -1 -519 31 -548 28 -27 69 -25
95 3 22 23 22 24 22 494 0 434 -1 472 -17 491 -29 34 -66 37 -99 9z"/>
<path d="M3870 1247 c-33 -16 -47 -58 -32 -92 14 -31 48 -45 109 -45 63 0 119
-18 180 -58 199 -129 227 -424 54 -585 -63 -59 -121 -88 -190 -93 -96 -8 -121
-14 -142 -35 -26 -26 -24 -70 4 -97 47 -45 230 -19 341 48 111 67 207 198 235
320 16 68 13 209 -5 271 -54 182 -197 322 -375 364 -78 18 -146 19 -179 2z"/>
<path d="M4920 1007 c-108 -38 -196 -116 -243 -217 -25 -52 -32 -81 -35 -150
-5 -105 14 -177 68 -257 43 -65 86 -101 162 -141 47 -25 62 -27 163 -27 99 0
116 3 167 27 70 33 158 117 158 151 0 13 -10 37 -22 52 -29 37 -74 29 -135
-25 -89 -78 -208 -89 -300 -27 -52 36 -75 64 -98 120 l-15 37 303 0 c277 0
305 2 319 18 25 28 28 48 17 113 -21 131 -106 247 -224 304 -51 25 -73 30
-155 32 -56 2 -109 -2 -130 -10z m226 -155 c50 -26 99 -77 118 -124 9 -21 16
-40 16 -43 0 -3 -110 -5 -245 -5 -135 0 -245 2 -245 5 0 13 28 65 52 97 32 41
85 77 132 89 47 12 129 3 172 -19z"/>
<path d="M5635 998 c-27 -15 -35 -28 -35 -61 0 -39 286 -698 313 -720 23 -20
72 -17 93 6 21 22 304 691 304 718 0 53 -71 87 -113 55 -10 -8 -67 -127 -126
-266 -59 -138 -112 -252 -116 -253 -4 -1 -56 110 -114 247 -122 283 -142 310
-206 274z"/>
<path d="M3120 572 c-30 -9 -50 -36 -50 -64 0 -28 83 -183 137 -256 28 -38 72
-43 103 -12 34 34 25 70 -52 199 -71 120 -98 146 -138 133z"/>
</g>
</svg>
